<svg width="14" height="13" viewBox="0 0 14 13" fill="none" xmlns="http://www.w3.org/2000/svg">
<path d="M4.09766 12.209C3.89453 12.209 3.73633 12.1406 3.62305 12.0039C3.51367 11.8711 3.45898 11.6914 3.45898 11.4648V9.94141H3.17773C2.5957 9.94141 2.10547 9.83789 1.70703 9.63086C1.30859 9.41992 1.00586 9.11523 0.798828 8.7168C0.595703 8.31836 0.494141 7.83203 0.494141 7.25781V2.76953C0.494141 2.19531 0.595703 1.70898 0.798828 1.31055C1.00586 0.912109 1.30859 0.609375 1.70703 0.402344C2.10547 0.191406 2.5957 0.0859375 3.17773 0.0859375H10.7246C11.3066 0.0859375 11.7969 0.191406 12.1953 0.402344C12.5938 0.609375 12.8945 0.912109 13.0977 1.31055C13.3047 1.70898 13.4082 2.19531 13.4082 2.76953V7.25781C13.4082 7.83203 13.3047 8.31836 13.0977 8.7168C12.8945 9.11523 12.5938 9.41992 12.1953 9.63086C11.7969 9.83789 11.3066 9.94141 10.7246 9.94141H6.96289L4.94141 11.7402C4.76562 11.8965 4.61719 12.0137 4.49609 12.0918C4.375 12.1699 4.24219 12.209 4.09766 12.209ZM4.33789 11.1367L6.21289 9.27344C6.32227 9.16016 6.42773 9.08594 6.5293 9.05078C6.63086 9.01562 6.76367 8.99805 6.92773 8.99805H10.7246C11.3145 8.99805 11.752 8.85156 12.0371 8.55859C12.3223 8.26172 12.4648 7.82617 12.4648 7.25195V2.76953C12.4648 2.19922 12.3223 1.76758 12.0371 1.47461C11.752 1.17773 11.3145 1.0293 10.7246 1.0293H3.17773C2.58398 1.0293 2.14453 1.17773 1.85938 1.47461C1.57812 1.76758 1.4375 2.19922 1.4375 2.76953V7.25195C1.4375 7.82617 1.57812 8.26172 1.85938 8.55859C2.14453 8.85156 2.58398 8.99805 3.17773 8.99805H3.89844C4.05859 8.99805 4.17188 9.03125 4.23828 9.09766C4.30469 9.16406 4.33789 9.27734 4.33789 9.4375V11.1367ZM6.31836 7.79102C6.2207 7.79102 6.13086 7.76953 6.04883 7.72656C5.9707 7.68359 5.89453 7.61523 5.82031 7.52148L4.39062 5.76367C4.30078 5.64258 4.25586 5.52148 4.25586 5.40039C4.25586 5.27148 4.29883 5.16211 4.38477 5.07227C4.47461 4.97852 4.58203 4.93164 4.70703 4.93164C4.78906 4.93164 4.86328 4.94922 4.92969 4.98438C5 5.01562 5.07031 5.07812 5.14062 5.17188L6.29492 6.66602L8.72656 2.76367C8.83594 2.58789 8.97266 2.5 9.13672 2.5C9.25781 2.5 9.36719 2.53906 9.46484 2.61719C9.5625 2.69531 9.61133 2.79883 9.61133 2.92773C9.61133 2.99414 9.5957 3.06055 9.56445 3.12695C9.53711 3.18945 9.50586 3.24805 9.4707 3.30273L6.79297 7.52148C6.67578 7.70117 6.51758 7.79102 6.31836 7.79102Z" fill="currentColor"/>
</svg>
