<svg width="14" height="14" viewBox="0 0 14 14" fill="none" xmlns="http://www.w3.org/2000/svg">
<path d="M3.1543 11.8262C2.63086 11.8262 2.24414 11.7012 1.99414 11.4512C1.74414 11.2012 1.61914 10.8145 1.61914 10.291V9.02539C1.61914 8.9082 1.58008 8.80859 1.50195 8.72656L0.605469 7.82422C0.234375 7.45703 0.0488281 7.09766 0.0488281 6.74609C0.0488281 6.39453 0.234375 6.0332 0.605469 5.66211L1.50195 4.75977C1.58008 4.67773 1.61914 4.58008 1.61914 4.4668V3.19531C1.61914 2.66797 1.74414 2.28125 1.99414 2.03516C2.24414 1.78516 2.63086 1.66016 3.1543 1.66016H4.41992C4.54102 1.66016 4.64062 1.62109 4.71875 1.54297L5.62109 0.646484C5.99219 0.275391 6.35156 0.0898438 6.69922 0.0898438C7.05078 0.0898438 7.41211 0.275391 7.7832 0.646484L8.68555 1.54297C8.76758 1.62109 8.86719 1.66016 8.98438 1.66016H10.25C10.7773 1.66016 11.1641 1.78711 11.4102 2.04102C11.6602 2.29102 11.7852 2.67578 11.7852 3.19531V4.4668C11.7852 4.58008 11.8262 4.67773 11.9082 4.75977L12.7988 5.66211C13.1699 6.0332 13.3555 6.39453 13.3555 6.74609C13.3594 7.09766 13.1738 7.45703 12.7988 7.82422L11.9082 8.72656C11.8262 8.80859 11.7852 8.9082 11.7852 9.02539V10.291C11.7852 10.8184 11.6602 11.2051 11.4102 11.4512C11.1602 11.7012 10.7734 11.8262 10.25 11.8262H8.98438C8.86719 11.8262 8.76758 11.8672 8.68555 11.9492L7.7832 12.8457C7.41211 13.2129 7.05078 13.3965 6.69922 13.3965C6.35156 13.4004 5.99219 13.2168 5.62109 12.8457L4.71875 11.9492C4.64062 11.8672 4.54102 11.8262 4.41992 11.8262H3.1543ZM3.1543 10.8945H4.73047C4.91016 10.8945 5.05859 10.957 5.17578 11.082L6.27734 12.1895C6.46484 12.373 6.60547 12.4648 6.69922 12.4648C6.79688 12.4648 6.93945 12.373 7.12695 12.1895L8.23438 11.082C8.35156 10.957 8.49805 10.8945 8.67383 10.8945H10.25C10.5117 10.8945 10.6777 10.8594 10.748 10.7891C10.8184 10.7188 10.8535 10.5527 10.8535 10.291V8.71484C10.8535 8.54297 10.916 8.39648 11.041 8.27539L12.1484 7.17383C12.332 6.98633 12.4238 6.84375 12.4238 6.74609C12.4238 6.64844 12.332 6.50586 12.1484 6.31836L11.041 5.2168C10.916 5.0918 10.8535 4.94336 10.8535 4.77148V3.19531C10.8535 2.9375 10.8184 2.77344 10.748 2.70312C10.6777 2.62891 10.5117 2.5918 10.25 2.5918H8.67383C8.49805 2.5918 8.35156 2.53125 8.23438 2.41016L7.12695 1.30273C6.93945 1.11914 6.79688 1.02734 6.69922 1.02734C6.60547 1.02734 6.46484 1.11914 6.27734 1.30273L5.17578 2.41016C5.05859 2.53125 4.91016 2.5918 4.73047 2.5918H3.1543C2.88867 2.5918 2.7207 2.62695 2.65039 2.69727C2.58398 2.76758 2.55078 2.93359 2.55078 3.19531V4.77148C2.55078 4.94336 2.49023 5.0918 2.36914 5.2168L1.26172 6.31836C1.07422 6.50586 0.980469 6.64844 0.980469 6.74609C0.980469 6.84375 1.07422 6.98633 1.26172 7.17383L2.36914 8.27539C2.49023 8.39648 2.55078 8.54297 2.55078 8.71484V10.291C2.55078 10.5527 2.58594 10.7188 2.65625 10.7891C2.72656 10.8594 2.89258 10.8945 3.1543 10.8945ZM6.06641 9.52344C5.96875 9.52344 5.87891 9.50195 5.79688 9.45898C5.71875 9.41602 5.64258 9.34766 5.56836 9.25391L4.13867 7.49609C4.04883 7.375 4.00391 7.25391 4.00391 7.13281C4.00391 7.00391 4.04688 6.89453 4.13281 6.80469C4.22266 6.71094 4.33008 6.66406 4.45508 6.66406C4.53711 6.66406 4.61133 6.68164 4.67773 6.7168C4.74805 6.74805 4.81836 6.81055 4.88867 6.9043L6.04297 8.39844L8.47461 4.49609C8.58398 4.32031 8.7207 4.23242 8.88477 4.23242C9.00586 4.23242 9.11523 4.27148 9.21289 4.34961C9.31055 4.42773 9.35938 4.53125 9.35938 4.66016C9.35938 4.72656 9.34375 4.79297 9.3125 4.85938C9.28516 4.92188 9.25391 4.98047 9.21875 5.03516L6.54102 9.25391C6.42383 9.43359 6.26562 9.52344 6.06641 9.52344Z" fill="currentColor"/>
</svg>
