<svg width="12" height="13" viewBox="0 0 12 13" fill="none" xmlns="http://www.w3.org/2000/svg">
<path d="M6.18945 12.6816C5.3418 12.6816 4.54688 12.5215 3.80469 12.2012C3.0625 11.8848 2.41016 11.4453 1.84766 10.8828C1.28516 10.3203 0.84375 9.66797 0.523438 8.92578C0.207031 8.18359 0.0488281 7.38867 0.0488281 6.54102C0.0488281 5.90039 0.140625 5.29102 0.324219 4.71289C0.511719 4.13086 0.773438 3.5957 1.10938 3.10742C1.44531 2.61914 1.83594 2.18945 2.28125 1.81836C2.73047 1.44336 3.21875 1.14062 3.74609 0.910156C3.88281 0.847656 4.00195 0.832031 4.10352 0.863281C4.20898 0.894531 4.2793 0.960938 4.31445 1.0625C4.35352 1.16016 4.3457 1.28125 4.29102 1.42578C4.18555 1.69141 4.09961 2 4.0332 2.35156C3.9668 2.69922 3.93359 3.03711 3.93359 3.36523C3.93359 4.53711 4.15039 5.53711 4.58398 6.36523C5.01758 7.18945 5.64648 7.81836 6.4707 8.25195C7.29492 8.68555 8.29297 8.90234 9.46484 8.90234C9.79688 8.90234 10.127 8.87305 10.4551 8.81445C10.7871 8.75586 11.0605 8.68945 11.2754 8.61523C11.4082 8.57227 11.5195 8.57227 11.6094 8.61523C11.7031 8.6543 11.7637 8.72461 11.791 8.82617C11.8184 8.92383 11.7988 9.04102 11.7324 9.17773C11.4277 9.83398 11.002 10.4277 10.4551 10.959C9.91211 11.4863 9.27734 11.9043 8.55078 12.2129C7.82812 12.5254 7.04102 12.6816 6.18945 12.6816ZM6.18945 11.7734C6.76758 11.7734 7.3125 11.6855 7.82422 11.5098C8.33984 11.3379 8.80664 11.0977 9.22461 10.7891C9.64648 10.4805 10.0098 10.125 10.3145 9.72266C10.1895 9.74609 10.0547 9.76758 9.91016 9.78711C9.76953 9.80273 9.62109 9.81055 9.46484 9.81055C8.125 9.81055 6.97266 9.55273 6.00781 9.03711C5.04688 8.52148 4.30859 7.7832 3.79297 6.82227C3.28125 5.85742 3.02539 4.70508 3.02539 3.36523C3.02539 3.18164 3.03516 3.00586 3.05469 2.83789C3.07422 2.66602 3.10352 2.49414 3.14258 2.32227C2.83398 2.54492 2.54688 2.80664 2.28125 3.10742C2.01562 3.4043 1.7832 3.73242 1.58398 4.0918C1.38867 4.45117 1.23438 4.83789 1.12109 5.25195C1.01172 5.66211 0.957031 6.0918 0.957031 6.54102C0.957031 7.26367 1.0918 7.94141 1.36133 8.57422C1.63477 9.20312 2.01172 9.75781 2.49219 10.2383C2.97266 10.7188 3.52734 11.0938 4.15625 11.3633C4.78906 11.6367 5.4668 11.7734 6.18945 11.7734Z" fill="currentColor"/>
</svg>
