<svg width="12" height="13" viewBox="0 0 12 13" fill="none" xmlns="http://www.w3.org/2000/svg">
<path d="M6.02539 12.7461C5.20117 12.7461 4.42773 12.5898 3.70508 12.2773C2.98242 11.9688 2.34766 11.541 1.80078 10.9941C1.25391 10.4473 0.824219 9.8125 0.511719 9.08984C0.203125 8.36719 0.0488281 7.59375 0.0488281 6.76953C0.0488281 5.94531 0.203125 5.17188 0.511719 4.44922C0.824219 3.72656 1.25391 3.0918 1.80078 2.54492C2.34766 1.99414 2.98242 1.56445 3.70508 1.25586C4.42773 0.947266 5.20117 0.792969 6.02539 0.792969C6.84961 0.792969 7.62305 0.947266 8.3457 1.25586C9.06836 1.56445 9.70312 1.99414 10.25 2.54492C10.7969 3.0918 11.2246 3.72656 11.5332 4.44922C11.8457 5.17188 12.002 5.94531 12.002 6.76953C12.002 7.59375 11.8457 8.36719 11.5332 9.08984C11.2246 9.8125 10.7969 10.4473 10.25 10.9941C9.70312 11.541 9.06836 11.9688 8.3457 12.2773C7.62305 12.5898 6.84961 12.7461 6.02539 12.7461ZM6.02539 11.75C6.71289 11.75 7.35742 11.6211 7.95898 11.3633C8.56055 11.1055 9.08984 10.748 9.54688 10.291C10.0039 9.83398 10.3613 9.30469 10.6191 8.70312C10.877 8.10156 11.0059 7.45703 11.0059 6.76953C11.0059 6.08203 10.877 5.4375 10.6191 4.83594C10.3613 4.23047 10.0039 3.70117 9.54688 3.24805C9.08984 2.79102 8.56055 2.43359 7.95898 2.17578C7.35742 1.91797 6.71289 1.78906 6.02539 1.78906C5.33789 1.78906 4.69336 1.91797 4.0918 2.17578C3.49023 2.43359 2.96094 2.79102 2.50391 3.24805C2.04688 3.70117 1.68945 4.23047 1.43164 4.83594C1.17383 5.4375 1.04492 6.08203 1.04492 6.76953C1.04492 7.45703 1.17383 8.10156 1.43164 8.70312C1.68945 9.30469 2.04688 9.83398 2.50391 10.291C2.96094 10.748 3.49023 11.1055 4.0918 11.3633C4.69336 11.6211 5.33789 11.75 6.02539 11.75ZM5 10.0449C4.87891 10.0449 4.77734 10.0059 4.69531 9.92773C4.61328 9.84961 4.57227 9.75195 4.57227 9.63477C4.57227 9.51758 4.61328 9.41992 4.69531 9.3418C4.77734 9.26367 4.87891 9.22461 5 9.22461H5.72656V6.53516H5.09961C4.97852 6.53516 4.87695 6.49609 4.79492 6.41797C4.71289 6.33984 4.67188 6.24219 4.67188 6.125C4.67188 6.00781 4.71289 5.91016 4.79492 5.83203C4.87695 5.75391 4.97852 5.71484 5.09961 5.71484H6.20117C6.34961 5.71484 6.46289 5.76367 6.54102 5.86133C6.61914 5.95508 6.6582 6.08203 6.6582 6.24219V9.22461H7.38477C7.50586 9.22461 7.60742 9.26367 7.68945 9.3418C7.77148 9.41992 7.8125 9.51758 7.8125 9.63477C7.8125 9.75195 7.77148 9.84961 7.68945 9.92773C7.60742 10.0059 7.50586 10.0449 7.38477 10.0449H5ZM5.97266 4.73633C5.76172 4.73633 5.58203 4.66211 5.43359 4.51367C5.28516 4.36523 5.21094 4.18555 5.21094 3.97461C5.21094 3.75977 5.28516 3.57812 5.43359 3.42969C5.58203 3.28125 5.76172 3.20703 5.97266 3.20703C6.1875 3.20703 6.36719 3.28125 6.51172 3.42969C6.66016 3.57812 6.73438 3.75977 6.73438 3.97461C6.73438 4.18555 6.66016 4.36523 6.51172 4.51367C6.36719 4.66211 6.1875 4.73633 5.97266 4.73633Z" fill="currentColor"/>
</svg>
