<svg width="13" height="12" viewBox="0 0 13 12" fill="none" xmlns="http://www.w3.org/2000/svg">
<path d="M6.7135 1.25555C6.54163 1.25555 6.39709 1.19696 6.27991 1.07977C6.16272 0.958679 6.10413 0.814148 6.10413 0.646179C6.10413 0.47821 6.16272 0.335632 6.27991 0.218445C6.39709 0.0973511 6.54163 0.0368042 6.7135 0.0368042C6.88147 0.0368042 7.02405 0.0973511 7.14124 0.218445C7.26233 0.335632 7.32288 0.47821 7.32288 0.646179C7.32288 0.814148 7.26233 0.958679 7.14124 1.07977C7.02405 1.19696 6.88147 1.25555 6.7135 1.25555ZM10.3873 2.77313C10.2155 2.77313 10.0709 2.71454 9.95374 2.59735C9.83655 2.47626 9.77795 2.33173 9.77795 2.16376C9.77795 1.99579 9.83655 1.85321 9.95374 1.73602C10.0709 1.61493 10.2155 1.55438 10.3873 1.55438C10.5553 1.55438 10.6979 1.61493 10.8151 1.73602C10.9323 1.85321 10.9908 1.99579 10.9908 2.16376C10.9908 2.33173 10.9323 2.47626 10.8151 2.59735C10.6979 2.71454 10.5553 2.77313 10.3873 2.77313ZM11.9049 6.44696C11.733 6.44696 11.5885 6.38837 11.4713 6.27118C11.3541 6.15009 11.2955 6.00555 11.2955 5.83759C11.2955 5.66962 11.3541 5.52704 11.4713 5.40985C11.5885 5.28876 11.733 5.22821 11.9049 5.22821C12.0729 5.22821 12.2155 5.28876 12.3326 5.40985C12.4498 5.52704 12.5084 5.66962 12.5084 5.83759C12.5084 6.00555 12.4498 6.15009 12.3326 6.27118C12.2155 6.38837 12.0729 6.44696 11.9049 6.44696ZM10.3873 10.1208C10.2155 10.1208 10.0709 10.0622 9.95374 9.94501C9.83655 9.82391 9.77795 9.67938 9.77795 9.51141C9.77795 9.34344 9.83655 9.20087 9.95374 9.08368C10.0709 8.96259 10.2155 8.90204 10.3873 8.90204C10.5553 8.90204 10.6979 8.96259 10.8151 9.08368C10.9323 9.20087 10.9908 9.34344 10.9908 9.51141C10.9908 9.67938 10.9323 9.82391 10.8151 9.94501C10.6979 10.0622 10.5553 10.1208 10.3873 10.1208ZM6.7135 11.6384C6.54163 11.6384 6.39709 11.5778 6.27991 11.4567C6.16272 11.3395 6.10413 11.197 6.10413 11.029C6.10413 10.861 6.16272 10.7165 6.27991 10.5954C6.39709 10.4782 6.54163 10.4196 6.7135 10.4196C6.88147 10.4196 7.02405 10.4782 7.14124 10.5954C7.26233 10.7165 7.32288 10.861 7.32288 11.029C7.32288 11.197 7.26233 11.3395 7.14124 11.4567C7.02405 11.5778 6.88147 11.6384 6.7135 11.6384ZM3.03967 10.1208C2.8717 10.1208 2.72717 10.0622 2.60608 9.94501C2.48889 9.82391 2.4303 9.67938 2.4303 9.51141C2.4303 9.34344 2.48889 9.20087 2.60608 9.08368C2.72717 8.96259 2.8717 8.90204 3.03967 8.90204C3.20764 8.90204 3.35022 8.96259 3.46741 9.08368C3.5885 9.20087 3.64905 9.34344 3.64905 9.51141C3.64905 9.67938 3.5885 9.82391 3.46741 9.94501C3.35022 10.0622 3.20764 10.1208 3.03967 10.1208ZM1.52209 6.44696C1.35413 6.44696 1.20959 6.38837 1.0885 6.27118C0.971313 6.15009 0.91272 6.00555 0.91272 5.83759C0.91272 5.66962 0.971313 5.52704 1.0885 5.40985C1.20959 5.28876 1.35413 5.22821 1.52209 5.22821C1.69006 5.22821 1.83264 5.28876 1.94983 5.40985C2.07092 5.52704 2.13147 5.66962 2.13147 5.83759C2.13147 6.00555 2.07092 6.15009 1.94983 6.27118C1.83264 6.38837 1.69006 6.44696 1.52209 6.44696ZM3.03967 2.77313C2.8717 2.77313 2.72717 2.71454 2.60608 2.59735C2.48889 2.47626 2.4303 2.33173 2.4303 2.16376C2.4303 1.99579 2.48889 1.85321 2.60608 1.73602C2.72717 1.61493 2.8717 1.55438 3.03967 1.55438C3.20764 1.55438 3.35022 1.61493 3.46741 1.73602C3.5885 1.85321 3.64905 1.99579 3.64905 2.16376C3.64905 2.33173 3.5885 2.47626 3.46741 2.59735C3.35022 2.71454 3.20764 2.77313 3.03967 2.77313ZM6.7135 8.82001C6.29944 8.82001 5.91272 8.74384 5.55334 8.59149C5.19397 8.43524 4.87756 8.2204 4.60413 7.94696C4.33069 7.67352 4.11584 7.35712 3.95959 6.99774C3.80334 6.63446 3.72522 6.24774 3.72522 5.83759C3.72522 5.42352 3.80334 5.0368 3.95959 4.67743C4.11584 4.31805 4.33069 4.00165 4.60413 3.72821C4.87756 3.45477 5.19397 3.23993 5.55334 3.08368C5.91272 2.92743 6.29944 2.8493 6.7135 2.8493C7.12366 2.8493 7.50842 2.92743 7.8678 3.08368C8.23108 3.23993 8.54944 3.45477 8.82288 3.72821C9.09631 4.00165 9.3092 4.31805 9.46155 4.67743C9.6178 5.0368 9.69592 5.42352 9.69592 5.83759C9.69592 6.24774 9.6178 6.63446 9.46155 6.99774C9.3092 7.35712 9.09631 7.67352 8.82288 7.94696C8.54944 8.2204 8.23108 8.43524 7.8678 8.59149C7.50842 8.74384 7.12366 8.82001 6.7135 8.82001ZM6.7135 7.92938C7.10022 7.92938 7.45178 7.83563 7.76819 7.64813C8.08459 7.46063 8.33655 7.20868 8.52405 6.89227C8.71155 6.57587 8.8053 6.2243 8.8053 5.83759C8.8053 5.45087 8.71155 5.0993 8.52405 4.7829C8.33655 4.46649 8.08459 4.21454 7.76819 4.02704C7.45178 3.83563 7.10022 3.73993 6.7135 3.73993C6.32678 3.73993 5.97522 3.83563 5.65881 4.02704C5.34241 4.21454 5.0885 4.46649 4.89709 4.7829C4.70959 5.0993 4.61584 5.45087 4.61584 5.83759C4.61584 6.2243 4.70959 6.57587 4.89709 6.89227C5.0885 7.20868 5.34241 7.46063 5.65881 7.64813C5.97522 7.83563 6.32678 7.92938 6.7135 7.92938Z" fill="currentColor"/>
</svg>
