<svg width="14" height="14" viewBox="0 0 14 14" fill="none" xmlns="http://www.w3.org/2000/svg">
<path d="M8.23242 13.25C7.95898 13.25 7.76172 13.1523 7.64062 12.957C7.51953 12.7617 7.41602 12.5176 7.33008 12.2246L6.09961 8.04688L1.86914 6.80469C1.58789 6.71875 1.35547 6.61719 1.17188 6.5C0.988281 6.37891 0.896484 6.18359 0.896484 5.91406C0.896484 5.70312 0.980469 5.52148 1.14844 5.36914C1.31641 5.2168 1.52344 5.09375 1.76953 5L11.8477 1.13867C11.9844 1.08789 12.1113 1.04883 12.2285 1.02148C12.3496 0.990234 12.459 0.974609 12.5566 0.974609C12.748 0.974609 12.8984 1.0293 13.0078 1.13867C13.1172 1.24805 13.1719 1.39844 13.1719 1.58984C13.1719 1.69141 13.1562 1.80078 13.125 1.91797C13.0977 2.03516 13.0586 2.16211 13.0078 2.29883L9.16992 12.3242C9.06055 12.6055 8.92969 12.8301 8.77734 12.998C8.625 13.166 8.44336 13.25 8.23242 13.25ZM6.36328 7.15625L10.3945 3.125C10.5547 2.96484 10.7441 2.79492 10.9629 2.61523C11.1816 2.43555 11.3887 2.26758 11.584 2.11133C11.3652 2.21289 11.1426 2.31836 10.916 2.42773C10.6934 2.5332 10.4648 2.63086 10.2305 2.7207L2.30859 5.7207C2.26562 5.73633 2.23633 5.75391 2.2207 5.77344C2.20508 5.78906 2.19727 5.80664 2.19727 5.82617C2.19727 5.8457 2.20508 5.86328 2.2207 5.87891C2.24023 5.89453 2.27344 5.9082 2.32031 5.91992L6.36328 7.15625ZM8.32617 11.9609C8.3457 11.9609 8.36328 11.9512 8.37891 11.9316C8.39453 11.9121 8.41016 11.8809 8.42578 11.8379L11.4258 3.91602C11.5156 3.67773 11.6152 3.44531 11.7246 3.21875C11.834 2.99219 11.9395 2.76758 12.041 2.54492C11.8848 2.74414 11.7148 2.95508 11.5312 3.17773C11.3516 3.40039 11.1816 3.5918 11.0215 3.75195L6.99023 7.7832L8.22656 11.8262C8.24219 11.873 8.25586 11.9062 8.26758 11.9258C8.2832 11.9492 8.30273 11.9609 8.32617 11.9609Z" fill="currentColor"/>
</svg>
