<svg width="25" height="21" viewBox="0 0 25 21" fill="none" xmlns="http://www.w3.org/2000/svg">
<path fill-rule="evenodd" clip-rule="evenodd" d="M1.27021 0.0815348C1.09143 0.00270175 0.883106 0.0352335 0.73687 0.164821C0.590635 0.294409 0.533283 0.497307 0.590041 0.684274L3.56785 10.4935L0.590041 20.3028C0.533283 20.4898 0.590635 20.6927 0.73687 20.8222C0.883106 20.9518 1.09143 20.9844 1.27021 20.9055L23.8394 10.9538C23.8575 10.9461 23.8751 10.9373 23.8921 10.9276C23.9467 10.8964 23.9939 10.8559 24.0321 10.8087C24.0705 10.7615 24.1006 10.7069 24.1199 10.6469C24.134 10.603 24.1422 10.557 24.1437 10.51C24.1441 10.4982 24.1441 10.4864 24.1436 10.4747C24.1419 10.4286 24.1338 10.3833 24.1198 10.3402C24.1006 10.2803 24.0706 10.2258 24.0323 10.1786C23.994 10.1313 23.9468 10.0907 23.8921 10.0594C23.8751 10.0497 23.8575 10.041 23.8394 10.0333L1.27021 0.0815348ZM21.2707 9.99353L1.86329 1.43595L4.46112 9.99353H21.2707ZM21.2707 10.9935H4.46112L1.86329 19.5511L21.2707 10.9935Z" fill="currentColor"/>
</svg>
