<svg width="928" height="207" viewBox="0 0 928 207" fill="currentColor" xmlns="http://www.w3.org/2000/svg">
<path d="M892.423 59.4998C892.44 59.4552 892.484 59.4259 892.531 59.4259H927.217C927.301 59.4259 927.357 59.5105 927.325 59.5872L867.171 203.517C867.153 203.56 867.11 203.589 867.063 203.589H836.407C836.359 203.589 836.316 203.559 836.299 203.515L812.227 141.967C812.188 141.868 812.048 141.869 812.01 141.968L788.485 203.514C788.468 203.559 788.425 203.589 788.377 203.589H757.446C757.399 203.589 757.356 203.56 757.338 203.517L697.459 59.587C697.427 59.5103 697.484 59.4259 697.567 59.4259H731.978C732.026 59.4259 732.069 59.4551 732.086 59.4996L774.862 168.085C774.902 168.185 775.044 168.182 775.08 168.081L791.743 121.37C791.753 121.343 791.752 121.313 791.742 121.287L766.787 59.8612C766.756 59.7847 766.813 59.701 766.895 59.701H797.177C797.227 59.701 797.271 59.7329 797.287 59.7802L812.008 103.396C812.043 103.502 812.192 103.502 812.228 103.397L827.222 59.7796C827.238 59.7326 827.282 59.701 827.332 59.701H857.614C857.697 59.701 857.753 59.7847 857.722 59.8612L832.768 121.286C832.757 121.313 832.756 121.343 832.766 121.37L849.703 168.083C849.74 168.184 849.882 168.186 849.921 168.086L892.423 59.4998Z" fill="currentColor"/>
<path d="M653.96 206.34C642.221 206.34 631.675 204.414 622.321 200.562C612.967 196.527 604.989 191.025 598.386 184.055C591.966 177.085 587.014 169.107 583.529 160.12C580.044 151.132 578.302 141.687 578.302 131.782C578.302 121.695 580.044 112.157 583.529 103.17C587.014 94.1826 591.966 86.2042 598.386 79.2345C604.989 72.2648 612.967 66.8541 622.321 63.0024C631.675 58.9673 642.221 56.9497 653.96 56.9497C665.698 56.9497 676.153 58.9673 685.324 63.0024C694.678 66.8541 702.656 72.2648 709.259 79.2345C715.862 86.2042 720.814 94.1826 724.115 103.17C727.6 112.157 729.343 121.695 729.343 131.782C729.343 141.687 727.6 151.132 724.115 160.12C720.814 169.107 715.862 177.085 709.259 184.055C702.84 191.025 694.953 196.527 685.599 200.562C676.245 204.414 665.698 206.34 653.96 206.34ZM616.269 131.782C616.269 140.219 617.919 147.739 621.221 154.342C624.522 160.762 629.016 165.806 634.702 169.474C640.387 173.142 646.807 174.976 653.96 174.976C660.93 174.976 667.257 173.142 672.943 169.474C678.629 165.622 683.123 160.487 686.424 154.067C689.909 147.464 691.651 139.944 691.651 131.507C691.651 123.254 689.909 115.825 686.424 109.223C683.123 102.62 678.629 97.4841 672.943 93.8158C667.257 90.1475 660.93 88.3134 653.96 88.3134C646.807 88.3134 640.387 90.2392 634.702 94.0909C629.016 97.7592 624.522 102.895 621.221 109.498C617.919 115.917 616.269 123.345 616.269 131.782Z" fill="currentColor"/>
<path d="M571.912 205.79C560.724 205.79 551.828 202.763 545.225 196.711C538.806 190.658 535.596 182.955 535.596 173.601V61.3517C535.596 55.8493 534.954 50.8054 533.67 46.2201C532.386 41.6348 530.094 38.0582 526.792 35.4905C523.491 32.7393 518.722 31.3636 512.486 31.3636C506.617 31.3636 501.848 32.6475 498.18 35.2153C494.695 37.7831 492.127 41.4514 490.476 46.2201C488.826 50.8054 488 56.1244 488 62.1771V67.0128C488 67.0771 488.052 67.1292 488.117 67.1292H511.819C511.884 67.1292 511.936 67.1813 511.936 67.2456V95.075C511.936 95.1393 511.884 95.1914 511.819 95.1914H488.117C488.052 95.1914 488 95.2436 488 95.3078V203.472C488 203.537 487.948 203.589 487.884 203.589H451.251C451.186 203.589 451.134 203.537 451.134 203.472V95.3078C451.134 95.2436 451.082 95.1914 451.018 95.1914H432.267C432.203 95.1914 432.151 95.1393 432.151 95.075V67.2456C432.151 67.1813 432.203 67.1292 432.267 67.1292H451.018C451.082 67.1292 451.134 67.0771 451.134 67.0128V55.024C451.134 43.1021 453.519 33.1061 458.287 25.0359C463.239 16.7823 470.209 10.5463 479.196 6.32776C488.184 2.10925 498.913 0 511.385 0C532.295 0 547.701 4.95215 557.606 14.8565C567.51 24.7608 572.462 37.7831 572.462 53.9235V156.268C572.462 162.137 573.471 166.356 575.488 168.924C577.506 171.491 580.349 172.775 584.017 172.775C587.502 172.775 590.987 172.225 594.472 171.125C597.854 170.056 600.286 169.248 601.767 168.698C601.836 168.672 601.911 168.716 601.923 168.788L606.838 198.277C606.846 198.327 606.822 198.377 606.776 198.399C605.293 199.13 602.659 200.126 598.874 201.388C595.022 202.488 590.712 203.497 585.943 204.414C581.174 205.331 576.497 205.79 571.912 205.79Z" fill="currentColor"/>
<path d="M611.99 193.222C610.98 195.985 609.941 197.176 606.85 198.362L602.939 195.696L602.561 188.63L606.85 187.786L611.99 193.222Z" fill="currentColor"/>
<path d="M457.962 196.36C457.976 196.415 457.948 196.471 457.896 196.493C454.889 197.729 451.271 199.141 447.042 200.726C442.772 202.328 438.145 203.573 433.162 204.463C428.358 205.531 423.464 206.065 418.481 206.065C411.897 206.065 405.847 204.908 400.331 202.595C394.814 200.281 390.366 196.633 386.985 191.651C383.781 186.49 382.18 179.817 382.18 171.632V91.4006C382.18 91.3382 382.129 91.2877 382.067 91.2877H363.875C363.813 91.2877 363.762 91.2371 363.762 91.1747V63.9075C363.762 63.8451 363.813 63.7946 363.875 63.7946H382.067C382.129 63.7946 382.18 63.744 382.18 63.6816V18.5306C382.18 18.4682 382.23 18.4176 382.293 18.4176H417.835C417.897 18.4176 417.948 18.4682 417.948 18.5306V63.6816C417.948 63.744 417.998 63.7946 418.061 63.7946H447.196C447.259 63.7946 447.309 63.8451 447.309 63.9075V91.1747C447.309 91.2371 447.259 91.2877 447.196 91.2877H418.061C417.998 91.2877 417.948 91.3382 417.948 91.4006V159.62C418.126 164.425 419.46 167.895 421.951 170.03C424.443 172.165 427.557 173.233 431.294 173.233C435.031 173.233 438.679 172.61 442.238 171.365C445.73 170.142 448.537 169.091 450.659 168.212C450.723 168.185 450.794 168.221 450.811 168.288L457.962 196.36Z" fill="currentColor"/>
<path d="M388.254 91.2234C388.254 91.2877 388.202 91.3398 388.138 91.3399C376.997 91.3551 367.04 93.5561 358.266 97.9427C349.471 102.157 343.147 108.293 339.294 116.352C339.287 116.368 339.283 116.385 339.283 116.402V203.472C339.283 203.537 339.231 203.589 339.167 203.589H302.533C302.469 203.589 302.417 203.537 302.417 203.472V59.5423C302.417 59.478 302.469 59.4259 302.533 59.4259H336.14C336.205 59.4259 336.257 59.478 336.257 59.5423V89.7619C336.257 89.8838 336.421 89.9232 336.478 89.8153C341.579 80.1123 348.016 72.4586 355.79 66.8541C363.677 61.1683 372.022 58.0503 380.826 57.5001C382.844 57.5001 384.403 57.5001 385.503 57.5001C386.56 57.5001 387.448 57.5846 388.166 57.7538C388.218 57.766 388.254 57.8127 388.254 57.8661V91.2234Z" fill="currentColor"/>
<path d="M170.299 160.945C170.299 151.591 172.867 143.429 178.003 136.459C183.322 129.306 190.658 123.804 200.012 119.952C209.366 116.101 220.096 114.175 232.201 114.175C238.254 114.175 244.398 114.633 250.634 115.55C256.797 116.456 262.153 117.9 266.703 119.881C266.78 119.914 266.866 119.858 266.866 119.774V112.249C266.866 103.078 264.115 96.0168 258.613 91.0646C253.294 86.1124 245.315 83.6364 234.677 83.6364C226.791 83.6364 219.271 85.012 212.118 87.7632C204.998 90.5014 197.515 94.5115 189.669 99.7935C189.61 99.8329 189.53 99.8117 189.499 99.7482L177.773 75.7502C177.747 75.6975 177.765 75.6337 177.814 75.6016C187.324 69.3937 197.016 64.7354 206.89 61.6268C216.978 58.5088 227.524 56.9497 238.529 56.9497C259.071 56.9497 275.028 62.0853 286.4 72.3565C297.955 82.6276 303.732 97.3006 303.732 116.376V162.321C303.732 166.172 304.374 168.924 305.658 170.574C307.109 172.207 309.368 173.211 312.433 173.588C312.492 173.595 312.536 173.645 312.536 173.704V203.49C312.536 203.547 312.495 203.596 312.439 203.605C309.175 204.148 306.181 204.601 303.457 204.964C300.89 205.331 298.689 205.514 296.854 205.514C289.518 205.514 283.924 203.864 280.072 200.562C276.404 197.261 274.111 193.226 273.194 188.457L272.401 181.315C272.389 181.211 272.256 181.174 272.192 181.256C265.986 189.216 258.25 195.376 248.984 199.737C239.63 204.139 230.092 206.34 220.371 206.34C210.834 206.34 202.213 204.414 194.51 200.562C186.99 196.527 181.029 191.117 176.627 184.33C172.409 177.361 170.299 169.565 170.299 160.945ZM259.988 168.373C262.006 166.172 263.657 163.971 264.941 161.77C266.224 159.569 266.866 157.552 266.866 155.718V141.214C266.866 141.167 266.838 141.125 266.795 141.107C262.413 139.287 257.668 137.922 252.56 137.01C247.425 135.909 242.564 135.359 237.979 135.359C228.441 135.359 220.555 137.468 214.319 141.687C208.266 145.722 205.24 151.132 205.24 157.919C205.24 161.587 206.248 165.072 208.266 168.373C210.283 171.675 213.218 174.334 217.07 176.352C220.921 178.369 225.507 179.378 230.826 179.378C236.328 179.378 241.739 178.369 247.058 176.352C252.377 174.151 256.687 171.491 259.988 168.373Z" fill="currentColor"/>
<path d="M196.744 196.063C196.758 196.119 196.729 196.177 196.676 196.199C193.576 197.473 189.847 198.928 185.489 200.562C181.087 202.213 176.318 203.497 171.183 204.414C166.23 205.514 161.186 206.065 156.051 206.065C149.265 206.065 143.029 204.873 137.343 202.488C131.657 200.104 127.072 196.344 123.587 191.208C120.285 185.889 118.635 179.011 118.635 170.574V87.8796C118.635 87.8153 118.583 87.7632 118.518 87.7632H99.7678C99.7035 87.7632 99.6514 87.7111 99.6514 87.6468V59.5423C99.6514 59.478 99.7035 59.4259 99.7678 59.4259H118.518C118.583 59.4259 118.635 59.3737 118.635 59.3095V12.7719C118.635 12.7076 118.687 12.6555 118.751 12.6555H155.384C155.449 12.6555 155.501 12.7076 155.501 12.7719V59.3095C155.501 59.3737 155.553 59.4259 155.617 59.4259H185.647C185.712 59.4259 185.764 59.478 185.764 59.5423V87.6468C185.764 87.7111 185.712 87.7632 185.647 87.7632H155.617C155.553 87.7632 155.501 87.8153 155.501 87.8796V158.194C155.684 163.146 157.06 166.723 159.627 168.924C162.195 171.124 165.405 172.225 169.257 172.225C173.108 172.225 176.868 171.583 180.537 170.299C184.136 169.039 187.03 167.956 189.217 167.049C189.282 167.022 189.356 167.059 189.374 167.128L196.744 196.063Z" fill="currentColor"/>
<path d="M64.1029 206.34C51.8142 206.34 40.0758 204.322 28.8876 200.287C17.7287 196.263 8.12062 190.322 0.0634315 182.466C0.025954 182.43 0.0175104 182.373 0.0427965 182.327L13.1387 158.591C13.1736 158.527 13.2578 158.511 13.3141 158.557C21.8969 165.482 30.2978 170.588 38.5168 173.876C46.9538 177.177 55.024 178.828 62.7273 178.828C69.8804 178.828 75.5662 177.544 79.7847 174.976C84.1867 172.408 86.3876 168.557 86.3876 163.421C86.3876 159.936 85.1954 157.277 82.8111 155.443C80.4267 153.425 76.9418 151.683 72.3565 150.215C67.9546 148.748 62.5439 147.097 56.1244 145.263C45.4865 141.778 36.5909 138.385 29.4378 135.084C22.2847 131.782 16.874 127.656 13.2058 122.703C9.7209 117.568 7.97847 111.057 7.97847 103.17C7.97847 93.6324 10.3628 85.4705 15.1316 78.6842C20.0837 71.7145 26.87 66.3039 35.4905 62.4522C44.2943 58.6005 54.5654 56.6747 66.3039 56.6747C76.575 56.6747 86.2959 58.3254 95.4666 61.6268C104.609 64.7352 112.931 69.8488 120.433 76.9675C120.473 77.0057 120.481 77.0674 120.451 77.1143L105.715 100.311C105.678 100.369 105.599 100.382 105.545 100.34C98.2452 94.6949 91.3093 90.5943 84.7369 88.0383C78.134 85.2871 71.4394 83.9115 64.6532 83.9115C60.8015 83.9115 57.1332 84.3701 53.6484 85.2871C50.3469 86.2042 47.5957 87.7632 45.3948 89.9641C43.3772 91.9817 42.3684 94.9163 42.3684 98.768C42.3684 102.253 43.2855 105.004 45.1196 107.022C47.1372 108.856 50.0718 110.506 53.9235 111.974C57.9586 113.441 62.819 115.092 68.5048 116.926C80.0599 120.227 89.7808 123.62 97.6675 127.105C105.738 130.59 111.79 134.9 115.825 140.036C119.861 144.988 121.878 151.866 121.878 160.67C121.878 174.976 116.651 186.164 106.196 194.235C95.7417 202.305 81.7106 206.34 64.1029 206.34Z" fill="currentColor"/>
<path d="M406.43 95.2938H432.506L439.758 81.3772H408.59L406.43 95.2938Z" fill="currentColor"/>
<path d="M80.1895 59.4284H99.6529L101.946 60.2724L101.446 69.6782L80.1895 59.4284Z" fill="currentColor"/>
<path d="M125.798 100.422H105.636L103.762 83.3445L124.541 80.3528L125.798 100.422Z" fill="currentColor"/>
<path d="M247.736 59.4284H185.76L176.564 75.7198H247.736V59.4284Z" fill="currentColor"/>
<path d="M189.584 100.422H118.634L109.949 83.1175H189.584V100.422Z" fill="currentColor"/>
<path d="M453.354 63.7937H446.911L444.152 66.0462L443.535 75.5452L454.117 75.8187L453.354 63.7937Z" fill="currentColor"/>
<path d="M653.245 59.4226H697.428L714.866 63.4037L712.148 85.1372L689.797 80.9407L653.245 59.4226Z" fill="currentColor"/>
</svg>
